<?xml version="1.0" encoding="utf-8"?>
<!-- Generator: Adobe Illustrator 16.0.0, SVG Export Plug-In . SVG Version: 6.00 Build 0)  -->
<!DOCTYPE svg PUBLIC "-//W3C//DTD SVG 1.1//EN" "http://www.w3.org/Graphics/SVG/1.1/DTD/svg11.dtd">
<svg version="1.1" id="Capa_1" xmlns="http://www.w3.org/2000/svg" xmlns:xlink="http://www.w3.org/1999/xlink" x="0px" y="0px"
	 width="68.141px" height="50.508px" viewBox="0 0 68.141 50.508" enable-background="new 0 0 68.141 50.508" xml:space="preserve">
<path fill="#040606" d="M55.93,20.862c-1.36-0.242-3.605-0.246-4.986-0.246c-3.041-0.002-8.143-0.009-11.184-0.01
	c-1.38,0-2.401-0.882-2.346-1.971c0.032-0.617,0.053-1.279,0.053-1.976c-0.001-3.376-0.455-7.638-2.126-11.982
	c-0.495-1.289-1.254-3.215-2.05-3.989c-0.45-0.437-1.052-0.761-1.821-0.671c-2.588,0.305-1.422,2.366-1.422,2.366
	c2.896,4.924,3.637,10.239,3.633,14.275c0.001,0.705-0.021,1.638-0.057,2.248c-0.064,1.089-1.296,2.24-2.676,2.24h-16.11
	C6.643,21.144,0,27.514,0,35.709c0,8.193,6.643,14.799,14.837,14.799c3.878,0,7.398-1.531,10.039-3.969
	c1.014-0.938,2.807-1.645,4.188-1.645h10.016c1.38,0,3.173,0.707,4.188,1.645c2.642,2.438,6.161,3.833,10.039,3.833
	c8.193,0,14.836-6.69,14.836-14.886C68.142,28.188,62.872,22.1,55.93,20.862z M21.439,36.369c0,0.963-0.78,1.742-1.742,1.742h-1.743
	c-0.962,0-1.742,0.78-1.742,1.742v1.742c0,0.962-0.78,1.742-1.742,1.742h-0.826c-0.962,0-1.742-0.78-1.742-1.742v-1.742
	c0-0.962-0.78-1.742-1.742-1.742H8.419c-0.962,0-1.742-0.779-1.742-1.742v-0.826c0-0.961,0.78-1.741,1.742-1.741h1.743
	c0.962,0,1.742-0.78,1.742-1.741v-1.742c0-0.963,0.78-1.742,1.742-1.742h0.826c0.962,0,1.742,0.779,1.742,1.742v1.742
	c0,0.963,0.78,1.742,1.742,1.742h1.743c0.962,0,1.742,0.779,1.742,1.742V36.369z M37.078,34.895h-6.017
	c-1.213,0-2.195-0.662-2.195-1.875s0.983-1.875,2.195-1.875h6.017c1.213,0,2.197,0.662,2.197,1.875S38.291,34.895,37.078,34.895z
	 M51.232,44.418c-2.028,0-3.675-1.646-3.675-3.677c0.001-2.031,1.646-3.677,3.675-3.677c2.032,0,3.679,1.646,3.679,3.677
	C54.91,42.771,53.264,44.418,51.232,44.418z M59.103,36.547c-2.029,0-3.676-1.646-3.676-3.675c0-2.031,1.645-3.677,3.676-3.677
	s3.676,1.646,3.676,3.677C62.779,34.9,61.134,36.547,59.103,36.547z"/>
</svg>
